<svg xmlns:xlink="http://www.w3.org/1999/xlink" width="250" xmlns="http://www.w3.org/2000/svg" height="176.138" id="screenshot-14a840ef-dc5a-80fb-8003-885666145d5c" viewBox="0 0 250 176.138" style="-webkit-print-color-adjust: exact;" fill="none" version="1.1"><g id="shape-14a840ef-dc5a-80fb-8003-885666145d5c" rx="0" ry="0"><g id="shape-14a840ef-dc5a-80fb-8003-8856239fd23c"><g class="fills" id="fills-14a840ef-dc5a-80fb-8003-8856239fd23c"><path height="800" width="1200" rx="0" ry="0" d="M244.777,27.504C241.901,16.678,233.431,8.152,222.673,5.259C203.178,0.000,125.000,0.000,125.000,0.000C125.000,0.000,46.823,0.000,27.327,5.259C16.569,8.152,8.097,16.678,5.223,27.504C0.000,47.127,0.000,88.069,0.000,88.069C0.000,88.069,0.000,129.009,5.223,148.634C8.097,159.461,16.569,167.984,27.326,170.881C46.822,176.138,124.999,176.138,124.999,176.138C124.999,176.138,203.177,176.138,222.672,170.881C233.430,167.986,241.900,159.461,244.776,148.635C250.000,129.010,250.000,88.070,250.000,88.070C250.000,88.070,250.000,47.128,244.777,27.504Z" style="fill: rgb(255, 0, 0); fill-opacity: 1;"/></g><g id="strokes-14a840ef-dc5a-80fb-8003-8856239fd23c" class="strokes"><g class="inner-stroke-shape"><defs><clipPath id="inner-stroke-rumext-id-2-14a840ef-dc5a-80fb-8003-8856239fd23c-0"><use href="#stroke-shape-rumext-id-2-14a840ef-dc5a-80fb-8003-8856239fd23c-0"/></clipPath><path height="800" width="1200" rx="0" ry="0" d="M244.777,27.504C241.901,16.678,233.431,8.152,222.673,5.259C203.178,0.000,125.000,0.000,125.000,0.000C125.000,0.000,46.823,0.000,27.327,5.259C16.569,8.152,8.097,16.678,5.223,27.504C0.000,47.127,0.000,88.069,0.000,88.069C0.000,88.069,0.000,129.009,5.223,148.634C8.097,159.461,16.569,167.984,27.326,170.881C46.822,176.138,124.999,176.138,124.999,176.138C124.999,176.138,203.177,176.138,222.672,170.881C233.430,167.986,241.900,159.461,244.776,148.635C250.000,129.010,250.000,88.070,250.000,88.070C250.000,88.070,250.000,47.128,244.777,27.504Z" id="stroke-shape-rumext-id-2-14a840ef-dc5a-80fb-8003-8856239fd23c-0" style="fill: none; stroke-width: 14; stroke: rgb(255, 0, 0); stroke-opacity: 1;"/></defs><use href="#stroke-shape-rumext-id-2-14a840ef-dc5a-80fb-8003-8856239fd23c-0" clip-path="url('#inner-stroke-rumext-id-2-14a840ef-dc5a-80fb-8003-8856239fd23c-0')"/></g></g></g><g id="shape-14a840ef-dc5a-80fb-8003-8856239fd23d"><g class="fills" id="fills-14a840ef-dc5a-80fb-8003-8856239fd23d"><path rx="0" ry="0" d="M128.816,114.389C127.769,115.419,126.372,115.863,125.025,115.789C123.628,115.863,122.231,115.419,121.184,114.389L91.550,85.204C89.605,83.277,89.605,80.143,91.550,78.212C93.546,76.280,96.738,76.359,99.981,76.359L114.948,76.359L114.948,44.000C100.115,46.762,88.735,59.092,87.624,74.221C74.532,77.893,65.000,89.150,65.000,102.474C65.000,118.196,78.275,131.096,95.000,132.000L151.250,132.000C169.872,132.000,185.000,116.303,185.000,96.937C185.000,78.277,170.184,63.067,151.501,61.978C148.011,55.017,142.128,49.424,134.903,46.262L134.903,76.359L149.869,76.359C153.112,76.359,156.454,76.280,158.450,78.212C160.395,80.143,160.395,83.277,158.450,85.204L128.816,114.389Z" style="fill: rgb(255, 255, 255); fill-opacity: 1;"/></g></g></g></svg>